<svg width="478" height="157" viewBox="0 0 478 157" fill="none" xmlns="http://www.w3.org/2000/svg">
<path d="M60.9876 133.475C55.4953 134.722 50.041 135.172 44.6248 134.826C39.273 134.378 34.7043 133.14 30.9188 131.112C27.1144 129 24.8061 126.155 23.994 122.577C23.2197 119.165 23.6461 116.224 25.2733 113.755C26.9004 111.285 29.2951 109.692 32.4574 108.974C34.5378 108.502 36.3931 108.387 38.0232 108.63C39.7176 108.77 41.5936 109.132 43.651 109.715C45.1335 110.079 46.3797 110.365 47.3896 110.573C48.4637 110.679 49.5417 110.61 50.6235 110.364C53.3697 109.741 54.4972 108.347 54.0062 106.184C53.8173 105.352 53.0743 104.776 51.777 104.458C50.4609 104.057 48.307 103.627 45.3153 103.168C39.9711 102.369 35.5518 101.403 32.0572 100.271C26.6717 98.518 22.6859 96.185 20.0996 93.2718C17.5966 90.3397 15.7785 86.3771 14.6454 81.3841C13.55 76.5575 14.0602 71.6728 16.176 66.7299C18.273 61.7039 21.6917 57.2966 26.4321 53.5081C31.1725 49.7197 36.705 47.1078 43.0295 45.6724C49.1875 44.2749 55.0219 43.957 60.5325 44.719C66.1075 45.3788 70.729 47.0426 74.397 49.7102C78.1294 52.2758 80.4489 55.5558 81.3554 59.5502C82.3941 64.1271 81.8048 67.8923 79.5875 70.8456C77.4345 73.6968 74.6936 75.5002 71.3649 76.2556C68.6188 76.8788 66.5006 77.1846 65.0103 77.1728C63.6033 77.1421 62.168 76.9866 60.7043 76.7062C59.528 76.5357 58.5465 76.4521 57.7598 76.4557C56.9542 76.376 55.8856 76.4873 54.5542 76.7894C53.4723 77.035 52.5171 77.6455 51.6885 78.6211C50.9242 79.4946 50.6837 80.5555 50.967 81.8037C51.1747 82.7191 51.8951 83.3869 53.128 83.8071C54.342 84.1441 55.713 84.4017 57.241 84.58C58.769 84.7582 59.8526 84.9061 60.4918 85.0235C68.8731 86.0965 75.3101 88.0482 79.8026 90.8788C84.2763 93.6261 87.1647 97.8708 88.4678 103.613C90.0732 110.686 88.4581 116.872 83.6227 122.169C78.8515 127.365 71.3065 131.133 60.9876 133.475ZM26.2028 24.1591C28.1168 23.7247 30.1308 23.9239 32.2449 24.7566C34.4233 25.4873 36.4786 26.6396 38.4109 28.2137C39.3912 25.9786 40.6645 24.0708 42.2309 22.4903C43.8616 20.8076 45.634 19.7491 47.548 19.3147C49.7948 18.8048 51.684 19.0323 53.2156 19.9973C54.7282 20.879 55.7301 22.4017 56.2211 24.5654C56.6933 26.6458 56.2784 29.0588 54.9764 31.8044C53.6556 34.4667 51.7599 36.9096 49.2893 39.1328C46.8831 41.254 44.3069 42.6262 41.5608 43.2494C38.8978 43.8538 36.0138 43.677 32.9088 42.7191C29.8038 41.7612 27.0715 40.325 24.712 38.4104C22.4356 36.477 21.0802 34.5532 20.6458 32.6392C20.1548 30.4756 20.4012 28.6696 21.385 27.2213C22.35 25.6897 23.9559 24.669 26.2028 24.1591Z" fill="#394235"/>
<path d="M123.76 121.435C116.811 122.261 111.593 118.843 108.104 111.179C104.7 103.506 102.263 93.4838 100.793 81.1122C99.8358 73.0622 100.38 65.3494 102.425 57.9738C104.545 50.5034 108.356 44.2499 113.859 39.2133C119.352 34.092 126.42 31.0177 135.063 29.9904C142.011 29.1646 148.5 29.8973 154.53 32.1883C160.55 34.3946 165.535 38.013 169.484 43.0434C173.518 48.0637 175.958 54.1329 176.804 61.2508C177.781 69.4703 176.949 76.5727 174.309 82.5581C171.669 88.5435 167.883 93.2042 162.952 96.5402C158.02 99.8761 152.631 101.892 146.784 102.586C142.039 103.15 137.579 102.864 133.405 101.727C134.236 104.379 134.737 106.424 134.908 107.865C135.865 115.915 132.149 120.438 123.76 121.435ZM142.663 83.0966C145.714 82.734 148.21 81.3203 150.151 78.8553C152.167 76.2954 152.999 73.5326 152.646 70.5669C152.284 67.5163 150.828 65.0254 148.278 63.0942C145.803 61.0681 143.04 60.2364 139.99 60.5989C137.024 60.9514 134.533 62.4075 132.517 64.9673C130.491 67.4424 129.659 70.2052 130.022 73.2558C130.374 76.2215 131.83 78.7124 134.39 80.7284C136.94 82.6597 139.698 83.4491 142.663 83.0966Z" fill="#394235"/>
<path d="M212.659 113.621C206.942 113.652 202.318 110.904 198.789 105.377C195.345 99.7639 193.298 92.1803 192.648 82.6264C192.556 81.2616 192.502 79.2565 192.487 76.6112C192.431 66.286 194.087 57.1461 197.457 49.1915C200.826 41.1516 205.614 34.9385 211.819 30.5524C218.109 26.0805 225.436 23.8216 233.798 23.7757C242.161 23.7298 249.469 25.9084 255.722 30.3115C262.061 34.6288 266.916 40.7462 270.287 48.6638C273.744 56.581 275.501 65.7448 275.558 76.1553C275.573 78.8006 275.541 80.8061 275.463 82.1719C274.919 91.9031 272.956 99.5086 269.572 104.989C266.189 110.469 261.596 113.224 255.793 113.256C251.1 113.282 247.808 112.02 245.917 109.47C244.111 106.92 243.197 103.811 243.177 100.141C243.168 98.4347 243.288 96.9407 243.537 95.6593C239.1 95.8544 235.176 95.9612 231.762 95.98C229.629 95.9917 227.282 95.9192 224.721 95.7626C224.984 97.0412 225.12 98.5338 225.13 100.24C225.15 103.995 224.229 107.157 222.366 109.728C220.588 112.298 217.352 113.595 212.659 113.621ZM223.7 72.9838C228.307 72.7879 231.677 72.6841 233.81 72.6724C236.114 72.6597 239.485 72.7266 243.924 72.8729C244.089 71.9333 244.167 70.5248 244.156 68.6475C244.134 64.6369 243.263 61.399 241.543 58.9337C239.822 56.3831 237.17 55.1177 233.586 55.1373C230.088 55.1565 227.492 56.4081 225.799 58.8921C224.106 61.3761 223.27 64.5808 223.291 68.506C223.299 69.9567 223.436 71.4493 223.7 72.9838Z" fill="#394235"/>
<path d="M373.31 48.3601C372.838 52.6865 371.083 55.7999 368.043 57.7005C365.003 59.6011 360.807 60.689 355.455 60.9642C355.229 65.4031 354.765 70.8462 354.062 77.2934C352.491 91.7147 348.47 102.221 342.001 108.812C335.532 115.404 326.401 118.057 314.61 116.772C308.841 116.143 303.834 114.439 299.587 111.659C295.35 108.793 292.214 105.276 290.179 101.105C288.144 96.9351 287.367 92.6444 287.848 88.2331C288.3 84.0764 289.802 80.9352 292.351 78.8095C294.985 76.693 297.871 75.8058 301.01 76.1478C303.979 76.4714 306.078 77.3009 307.306 78.6364C308.628 79.8964 309.724 81.6468 310.596 83.8878C311.354 85.6012 312.073 86.8813 312.753 87.728C313.518 88.5839 314.664 89.0951 316.191 89.2614C318.99 89.5665 320.924 88.3609 321.993 85.6446C323.146 82.9377 324.088 78.2333 324.818 71.5317L325.401 66.1873L326.246 58.4252C318.733 57.2632 312.976 55.3483 308.975 52.6805C305.059 50.022 303.387 46.0629 303.96 40.8034C304.45 36.3074 306.342 33.1229 309.636 31.2501C313.015 29.3865 317.113 28.4166 321.928 28.3404C326.828 28.2735 332.968 28.6421 340.348 29.4463C347.729 30.2505 353.762 31.2083 358.448 32.3198C363.134 33.4312 366.883 35.2562 369.697 37.7945C372.595 40.3422 373.8 43.864 373.31 48.3601Z" fill="#394235"/>
<path d="M411.958 132.267C404.795 130.674 398.839 128.955 394.091 127.112C389.344 125.269 385.61 122.603 382.889 119.113C380.169 115.623 379.439 111.046 380.699 105.382C381.496 101.8 383.954 98.4127 388.073 95.2205C392.211 91.9449 396.724 89.1461 401.612 86.8241C406.518 84.4187 412.535 81.736 419.662 78.7758C417.358 78.5254 414.914 78.1129 412.332 77.5385C404.919 75.8892 398.857 73.2731 394.146 69.69C389.538 66.0422 387.873 61.3446 389.152 55.5971C390.597 49.0999 394.61 45.0098 401.192 43.3268C407.875 41.5791 416.131 41.7985 425.96 43.9851C434.289 45.8382 441.365 48.0242 447.186 50.5431C453.109 52.9973 457.607 56.3581 460.679 60.6257C463.769 64.81 464.619 70.0258 463.229 76.2731C461.728 83.0201 457.539 88.6883 450.661 93.2775C443.866 97.8853 435.734 101.627 426.265 104.504C432.392 106.041 437.38 107.588 441.23 109.144C445.08 110.7 448.065 112.806 450.184 115.463C452.303 118.12 452.908 121.489 452 125.571C450.981 130.152 448.356 133.109 444.126 134.441C439.979 135.791 435.351 136.16 430.242 135.548C425.216 134.955 419.122 133.861 411.958 132.267Z" fill="#394235"/>
</svg>
