<svg width="810" height="716" viewBox="0 0 810 716" fill="none" xmlns="http://www.w3.org/2000/svg">
<path d="M178.917 75.1667C196.938 75.1667 214.356 77.8324 230.784 82.7912C240.3 85.6633 245.058 87.0998 248.464 85.9677C251.87 84.8361 254.813 80.8433 260.699 72.8579C293.254 28.6889 345.705 0 404.917 0C464.129 0 516.58 28.6889 549.135 72.8583C555.022 80.8436 557.964 84.8361 561.369 85.9681C564.774 87.0997 569.535 85.6633 579.05 82.7912C595.476 77.8324 612.897 75.1667 630.917 75.1667C729.731 75.1667 809.833 155.093 809.833 253.687C809.833 336.01 753.985 405.321 678.03 425.954C668.549 428.529 663.811 429.818 661.487 432.847C659.167 435.88 659.167 440.338 659.167 449.252V690.601C659.167 704.018 659.167 710.727 654.775 714.113C650.387 717.496 643.878 715.805 630.868 712.422L623.794 710.581C562.19 694.562 486.759 685.013 404.917 685.013C323.075 685.013 247.642 694.562 186.041 710.581L178.966 712.422C165.954 715.805 159.447 717.496 155.057 714.113C150.667 710.727 150.667 704.018 150.667 690.601V449.252C150.667 440.338 150.667 435.88 148.345 432.847C146.024 429.818 141.283 428.529 131.801 425.954C55.8469 405.321 0 336.01 0 253.687C0 155.093 80.1038 75.1667 178.917 75.1667Z" fill="#394235"/>
</svg>
